HIERARCHY
ROOT Hips
{
	OFFSET 0.000000 0.000000 0.000000 
	CHANNELS 6 Xposition Yposition Zposition Yrotation Zrotation Xrotation 
	JOINT Lumbar
	{
		OFFSET 0.000000 0.000000 0.000000 
		CHANNELS 3 Zrotation Xrotation Yrotation
		JOINT Neck
		{
			OFFSET 0.000000 0.445665 0.000000 
			CHANNELS 3 Zrotation Xrotation Yrotation
			End Site
			{
				OFFSET 0.000000 0.227535 0.000000 
			}
		}
		JOINT RightShoulder
		{
			OFFSET 0.019635 0.377685 0.194865 
			CHANNELS 3 Zrotation Xrotation Yrotation
			JOINT RightElbow
			{
				OFFSET 0.000000 -0.243375 0.000000 
				CHANNELS 2 Zrotation Yrotation
				JOINT RightWrist
				{
					OFFSET 0.000000 -0.264825 0.000000 
					CHANNELS 2 Zrotation Xrotation
					End Site
					{
						OFFSET 0.006600 -0.176220 0.000990 
					}
				}
			}
		}
		JOINT LeftShoulder
		{
			OFFSET 0.019635 0.377685 -0.194865 
			CHANNELS 3 Zrotation Xrotation Yrotation
			JOINT LeftElbow
			{
				OFFSET 0.000000 -0.243375 0.000000 
				CHANNELS 2 Zrotation Yrotation
				JOINT LeftWrist
				{
					OFFSET 0.000000 -0.264825 0.000000 
					CHANNELS 2 Zrotation Xrotation
					End Site
					{
						OFFSET 0.006600 -0.176220 -0.000990 
					}
				}
			}
		}
	}
	JOINT RightHip
	{
		OFFSET 0.052140 -0.069960 0.075570 
		CHANNELS 3 Zrotation Xrotation Yrotation
		JOINT RightKnee
		{
			OFFSET 0.000000 -0.402270 0.000000 
			CHANNELS 1 Zrotation
			JOINT RightAnkle
			{
				OFFSET 0.000000 -0.404085 0.000000 
				CHANNELS 3 Zrotation Xrotation Yrotation
				End Site
				{
					OFFSET 0.204105 -0.089430 0.008415 
				}
			}
		}
	}
	JOINT LeftHip
	{
		OFFSET 0.052140 -0.069960 -0.075570 
		CHANNELS 3 Zrotation Xrotation Yrotation
		JOINT LeftKnee
		{
			OFFSET 0.000000 -0.402270 0.000000 
			CHANNELS 1 Zrotation
			JOINT LeftAnkle
			{
				OFFSET 0.000000 -0.404085 0.000000 
				CHANNELS 3 Zrotation Xrotation Yrotation
				End Site
				{
					OFFSET 0.204105 -0.089430 -0.008415 
				}
			}
		}
	}
}
MOTION
Frames: 13
Frame Time: 0.02
-0.01878 -0.7027 -0.36701 124.48396 -85.52501 -89.99629 -8.88229 -7.09964 3.928 -4.81106 -10.33627 -2.11994 128.42418 -20.74337 44.47681 72.32316 124.09339 -44.65908 -8.45881 129.29247 28.82128 -42.13104 79.4455 -121.13721 -43.58167 8.14569 31.96811 -17.66511 6.71052 -57.87802 -5.91181 -3.34996 -3.82315 78.08809 -13.69287 22.52991 -147.07826 22.28766 -33.11591 -13.00529
-0.01875 -0.70272 -0.36701 124.49999 -85.52456 -89.99629 -8.8744 -7.0895 3.92273 -4.8064 -10.30454 -2.11994 128.93654 -21.13528 45.56146 72.26812 126.02273 -47.53809 -8.77413 130.35085 29.61937 -44.10617 79.38892 -123.17775 -47.71335 8.44282 31.95923 -17.63916 6.73421 -57.87844 -5.91349 -3.35378 -3.82522 78.06019 -13.69232 22.51189 -147.07826 22.28739 -33.11519 -13.00471
-0.01874 -0.70269 -0.367 124.51533 -85.51641 -89.9963 -8.86632 -7.08272 3.91857 -4.79365 -10.26553 -2.11994 129.79569 -21.78353 47.32741 72.17653 129.11465 -52.24471 -9.27155 131.70556 30.63919 -46.61658 79.31828 -125.80042 -53.00053 8.8146 31.95515 -17.60967 6.77439 -57.87734 -5.91527 -3.35753 -3.82736 78.04867 -13.69166 22.50184 -147.07826 22.28708 -33.11433 -13.00402
-0.01872 -0.70269 -0.367 124.53081 -85.51252 -89.9963 -8.85865 -7.07422 3.91407 -4.78546 -10.23133 -2.11994 130.44653 -22.27664 48.68004 72.10592 131.49683 -55.8456 -9.65712 132.87612 31.52277 -48.79425 79.25672 -128.08327 -57.58126 9.13962 31.9482 -17.58109 6.80799 -57.87685 -5.91706 -3.36139 -3.82951 78.02811 -13.69108 22.48709 -147.07826 22.2868 -33.11359 -13.00342
-0.0187 -0.70268 -0.36699 124.54705 -85.50562 -89.99631 -8.84941 -7.06639 3.90888 -4.77329 -10.19104 -2.11994 131.2988 -22.92268 50.44514 72.01725 134.60198 -60.54126 -10.15884 134.26666 32.5657 -51.37039 79.1846 -130.70888 -62.97229 9.52147 31.94388 -17.55577 6.8375 -57.87633 -5.91853 -3.36486 -3.83146 78.01278 -13.69034 22.47686 -147.07826 22.28644 -33.11263 -13.00265
-0.01869 -0.70268 -0.36699 124.56155 -85.50306 -89.99631 -8.84347 -7.05804 3.90537 -4.76761 -10.16152 -2.11994 131.82467 -23.31974 51.53475 71.95716 136.51483 -63.4482 -10.46778 135.26523 33.32524 -53.23561 79.13057 -132.74492 -66.93066 9.80146 31.93533 -17.52256 6.87965 -57.87564 -5.92077 -3.36918 -3.83388 77.99121 -13.68992 22.4592 -147.07826 22.28624 -33.1121 -13.00222
-0.01871 -0.70273 -0.36698 124.57132 -85.51474 -89.9963 -8.84677 -7.04702 3.90648 -4.78154 -10.16479 -2.11994 131.28953 -22.90675 50.4397 71.98763 134.58603 -60.56734 -10.15773 135.10951 33.25537 -53.01173 79.13306 -133.06895 -66.68436 9.78496 31.91386 -17.4704 6.95062 -57.87512 -5.9247 -3.37534 -3.83733 77.94605 -13.69049 22.41798 -147.07826 22.28651 -33.11283 -13.0028
-0.01874 -0.7028 -0.36698 124.57937 -85.53095 -89.99629 -8.85341 -7.03546 3.90919 -4.80238 -10.1789 -2.11994 130.42773 -22.24535 48.66938 72.04761 131.46573 -55.89704 -9.65509 134.54889 32.89129 -52.05288 79.1536 -132.76995 -64.95046 9.66294 31.88804 -17.41026 7.03372 -57.87449 -5.92948 -3.38243 -3.84129 77.89464 -13.69138 22.36919 -147.07826 22.28694 -33.11398 -13.00373
-0.01876 -0.70286 -0.36698 124.58827 -85.54484 -89.99628 -8.85849 -7.02445 3.91097 -4.82027 -10.1872 -2.11994 129.76671 -21.73866 47.31269 72.09228 129.07188 -52.32049 -9.26936 134.16978 32.65411 -51.42072 79.1637 -132.70974 -63.86093 9.58624 31.86423 -17.35215 7.11314 -57.87378 -5.93418 -3.38949 -3.84522 77.84784 -13.69209 22.32459 -147.07826 22.28729 -33.1149 -13.00448
-0.01878 -0.70293 -0.36697 124.59689 -85.55962 -89.99627 -8.86372 -7.01227 3.91363 -4.83702 -10.19894 -2.11994 128.90095 -21.06779 45.53755 72.14368 125.95214 -47.64535 -8.76821 133.80563 32.44819 -50.82689 79.18263 -132.8404 -62.91956 9.52127 31.84032 -17.29973 7.18709 -57.87352 -5.93769 -3.39504 -3.84839 77.79422 -13.69293 22.27713 -147.07827 22.28769 -33.11597 -13.00534
-0.01881 -0.70298 -0.36697 124.60566 -85.57368 -89.99625 -8.86943 -7.00233 3.91485 -4.85793 -10.20622 -2.11994 128.3743 -20.67218 44.45393 72.18858 124.02776 -44.7815 -8.45643 133.31793 32.11112 -49.98624 79.1878 -132.43928 -61.33456 9.40837 31.8157 -17.23478 7.27301 -57.87236 -5.94375 -3.40378 -3.85316 77.75297 -13.69359 22.2337 -147.07827 22.28801 -33.11683 -13.00604
-0.01885 -0.70299 -0.367 124.61552 -85.58487 -89.99625 -8.87574 -6.99883 3.91145 -4.88849 -10.19806 -2.11994 128.90734 -21.1335 45.53431 72.20806 125.84806 -47.58936 -8.73894 132.51793 31.4222 -48.51 79.14904 -130.52781 -58.03045 9.16598 31.78854 -17.12678 7.40731 -57.86841 -5.95783 -3.42248 -3.86308 77.74889 -13.6937 22.2034 -147.07827 22.28806 -33.11698 -13.00615
-0.0189 -0.70299 -0.36704 124.62556 -85.59517 -89.99623 -8.88239 -6.99752 3.9066 -4.92308 -10.1851 -2.11994 129.78268 -21.87199 47.31296 72.22017 128.87666 -52.22698 -9.21301 131.61731 30.62027 -46.82945 79.09612 -128.1311 -54.17328 8.8823 31.76109 -17.00821 7.55006 -57.86361 -5.97423 -3.4441 -3.87445 77.75722 -13.69363 22.17739 -147.07827 22.28803 -33.11689 -13.00608
